<svg width="26" height="26" viewBox="0 0 26 26" fill="none" xmlns="http://www.w3.org/2000/svg">
<circle cx="13" cy="13" r="13" fill="#D9D9D9"/>
<path d="M12.9996 10.3978C11.566 10.3978 10.3961 11.5677 10.3961 13.0013C10.3961 14.4349 11.566 15.6048 12.9996 15.6048C14.4332 15.6048 15.6031 14.4349 15.6031 13.0013C15.6031 11.5677 14.4332 10.3978 12.9996 10.3978ZM20.8082 13.0013C20.8082 11.9232 20.818 10.8548 20.7574 9.77866C20.6969 8.52866 20.4117 7.41928 19.4977 6.50522C18.5816 5.5892 17.4742 5.306 16.2242 5.24545C15.1461 5.18491 14.0777 5.19467 13.0016 5.19467C11.9234 5.19467 10.8551 5.18491 9.7789 5.24545C8.5289 5.306 7.41953 5.59116 6.50546 6.50522C5.58945 7.42124 5.30624 8.52866 5.2457 9.77866C5.18515 10.8568 5.19492 11.9251 5.19492 13.0013C5.19492 14.0775 5.18515 15.1478 5.2457 16.224C5.30624 17.474 5.5914 18.5833 6.50546 19.4974C7.42148 20.4134 8.5289 20.6966 9.7789 20.7572C10.857 20.8177 11.9254 20.808 13.0016 20.808C14.0797 20.808 15.148 20.8177 16.2242 20.7572C17.4742 20.6966 18.5836 20.4115 19.4977 19.4974C20.4137 18.5814 20.6969 17.474 20.7574 16.224C20.8199 15.1478 20.8082 14.0794 20.8082 13.0013ZM12.9996 17.0072C10.7828 17.0072 8.99374 15.2181 8.99374 13.0013C8.99374 10.7845 10.7828 8.99545 12.9996 8.99545C15.2164 8.99545 17.0055 10.7845 17.0055 13.0013C17.0055 15.2181 15.2164 17.0072 12.9996 17.0072ZM17.1695 9.76694C16.6519 9.76694 16.234 9.34897 16.234 8.83139C16.234 8.31381 16.6519 7.89584 17.1695 7.89584C17.6871 7.89584 18.1051 8.31381 18.1051 8.83139C18.1052 8.95429 18.0811 9.07602 18.0342 9.18959C17.9872 9.30317 17.9183 9.40636 17.8314 9.49327C17.7445 9.58017 17.6413 9.64908 17.5277 9.69604C17.4142 9.743 17.2924 9.76709 17.1695 9.76694Z" fill="#555555"/>
</svg>
